<svg xmlns="http://www.w3.org/2000/svg" width="480" height="240" viewBox="0 0 480 240"><path fill="url(#a)" d="M187.47.17c39.93 2.95 37.64 67.79 86.1 72.4 246.9 23.49-8.68 288.77-155.5 100.1-23.95-52.6-2.97-177.85 69.4-172.5Z" opacity=".3"/><path fill="#003F5E" d="M344.42 155.96c.64 2.16 13.04 23.93 19.92 36.2l7.37-4.5a377.98 377.98 0 0 1-6.64-21.35c-3.06-10.94-5.5-13.84-6.39-16.94-.88-3.1 3.8-21.33 5.3-29.53 1.49-8.2 1.42-17.03 0-19.98l-18.4-.05s-3.29 49.04-1.16 56.15Z"/><path fill="url(#b)" d="M332.89 144.91c0 7.68 2.11 9.1 3.75 27.27.82 9 .25 16.9.08 22.82h10.84a67.91 67.91 0 0 0 2.42-13.93c.75-8.77.5-27.2 1.08-31.96.58-4.76 9.48-33.6 9.48-44.66v-4.62h-26.5a2371.3 2371.3 0 0 0-1.15 45.08Z"/><path fill="#FF927C" d="M337.99 27.03a29.9 29.9 0 0 1-4.62-3.59c-.52 1.61-.4 3.82.2 4.95.74 1.42 1.22 2.52.74 3.37-.12.22-.32.52-.54.85-.62.94-1.44 2.16-1.37 2.8.06.54.93.81 1.61 1.03.4.13.74.23.82.36.11.17.22.46.33.78.13.35.26.72.42 1 .14.24.4.47.67.72a3 3 0 0 1 .83.98l.12.34c.25.8.69 2.2 2 2.32 1.03.09 2.2-.32 3.17-.65 1-.35 1.79-.63 2.03-.23.48.78 2.65 6.18 2.65 8.57l3.44-.17a10.5 10.5 0 0 1-.74-1.54 30.15 30.15 0 0 1-1.29-5.36c-.43-2.38-.87-4.86-1.98-7.29-1.98-4.34-4.9-6.74-7.66-8.67l-.83-.57Zm35.2 56.7 1.13-.73-3.4-5.07a259.75 259.75 0 0 1-4.91 5.15l1.72 2.25c-1.1.93-2.38 1.61-3.75 2.02-.38.09-.9.29-1.46.5-.56.21-1.14.43-1.6.55v4.03s4.37-.75 5.43-1.5c.54-.4 1.24-1.77 1.8-2.88l.01-.01c.32-.63.6-1.18.79-1.42.23-.3 2.03-1.46 4.24-2.89Zm-28.73 129.51c-1.25.75-7.84 2.3-13.12 2.3-5.1 0-11.56-.5-11.06-.81h.1l.43-.1c4.44-1.07 11.93-2.87 15.31-8.53.62-1.07 1.2-5.1 1.37-11.1h9.34a400 400 0 0 1-.66 2.13v.02c-1 3.19-1.88 6.03-2.21 8.15-.43 2.65-.25 5.36.5 7.94Zm16.64 1.49c1.12 1.97 7.11-.94 8.43-2.25 1.3-1.3 7.87-11.72 8.5-13.75l-.04-.03a43.93 43.93 0 0 1-2.27-2.14c-.85-.88-2.41-4.44-4.01-8.91l-7.37 4.5a234.4 234.4 0 0 1 4.46 8.16c1.14 2.65-2 8.38-4.12 11.77a6.94 6.94 0 0 1-3.58 2.65Z"/><path fill="#FF927C" fill-rule="evenodd" d="M298.1 95.12c.94-1.1 2.9-3.4 4.67-3.97l-1.64-5.54-2.48.86c-3.24 1.12-5.78 2-6.27 2.14-1.93.8-3.8 1.72-5.6 2.78l-.14.07-.16.1c-1.25.68-4.95 2.74-4.9 3.11.06.4 2.29.43 3.75.05a34.4 34.4 0 0 0 2.14-.74l.23-.08a2 2 0 0 0-.13.69c.2.99 1.72 2.3 2.2 2.66.11.07.33.15.61.23-.55.9-.68 1.9-.51 2.19.13.21 1.16-.33 2.1-.84.46-.24.9-.47 1.2-.6a32 32 0 0 0 4.47-2.58l.47-.53Zm-6.26.93c.2-.16.42-.31.63-.46.67-.48 1.27-.9 1.4-1.19.24-.58-.18-1.89-.97-1.94a6.79 6.79 0 0 0-1.94.34c-.28.46-.47.84-.45 1.04.2.68.52 1.33.92 1.92.06.07.2.17.4.29Z" clip-rule="evenodd"/><path fill="#EF5C8A" fill-rule="evenodd" d="M336.64 37.43c.51-.41.93-.92 1.24-1.5l.66.36a5.7 5.7 0 0 1-3.42 2.76l-.2-.72a4.95 4.95 0 0 0 1.72-.9Z" clip-rule="evenodd"/><path fill="#00AEA0" d="M335.4 78.12c-.38 5.69-1.36 21.71-1.36 21.71l30.07.17c-.08-9.37-.32-21.14-.9-29.74l.79.38c1.1.54 2.43 1.23 3.72 1.93 1.28.7 2.5 1.4 3.37 1.98a8.27 8.27 0 0 1 1.1.85l-.03.04c-.59.88-1.11 1.67-1.57 2.24l-.18.21 3.79 5.65.3-.2a96.17 96.17 0 0 0 6.85-4.74c1.66-1.36 2.16-3.6 2.03-5.7-.13-2.1-.91-4.16-1.99-5.23a94.6 94.6 0 0 0-4.25-3.63 892.9 892.9 0 0 0-7.5-6.1 538.9 538.9 0 0 0-11.38-9l-.65-.44c-.88-1.47-1.7-2.35-2.28-2.35-1.82.02-14.1 4.26-17.84 7.06-1.33 1-9.84 15.5-13.28 21.38l-1.33 2.26c-1.26 2.1-4.13 3.53-9 4.71-2.55.62-7.98 2.43-12.75 4.06l1.64 5.53.41-.1c.56-.08 2.24-.28 4.45-.54 6.6-.77 18.04-2.11 19.29-2.86 1.93-1.16 5.27-5.13 8.49-9.53Z"/><path fill="#FF927C" d="M368.3 85.25a11.9 11.9 0 0 1-4.3 2.34c-.87.21-2.48.94-3.54 1.22-.5.14-.87.17-.98 0-.83-1.33 3.87-3.55 4.5-3.96.81-.7 2.4-2.06 3.13-2.85l1.2 3.25Z"/><path fill="#003F5E" d="m338.48 27.36.34.24c2.77 1.93 5.69 4.33 7.67 8.67 1.1 2.43 1.55 4.91 1.97 7.3.34 1.87.67 3.69 1.3 5.35 1.42 3.75 5.25 6.75 7.73 7.34 3.46.88 7.73 1.02 9.63-2.18 2.27-3.85.95-5.65-.62-7.8-1.17-1.6-2.48-3.39-2.55-6.36-.17-5.87-2.95-7.91-4.67-9.18-.7-.51-1.22-.9-1.33-1.36-.07-.3-.04-.76 0-1.36.17-2.68.51-7.99-7.22-12.28-8.1-4.47-17.23.54-19.12 5.25l.02.05-.25.55c-1.27 4.05.8 6.73 2.68 7.79a18.6 18.6 0 0 0-.5-1c-.59-1.12-.71-3.33-.2-4.94a31.7 31.7 0 0 0 4.63 3.6l.48.33Z"/><path fill="#003F5E" d="M335.98 28.77a4 4 0 0 0-1.9-.16l-.14-.74a4.74 4.74 0 0 1 2.26.19c.71.21 1.38.54 1.9.84l-.38.65a8.62 8.62 0 0 0-1.74-.78Zm-.43 2.25a.88.88 0 1 1 1.25 1.25.88.88 0 0 1-1.25-1.25Zm-.87 186.74h.03c5.09.17 10.32.34 10.2-1.87-.06-.9-.21-1.78-.45-2.65-1.25.75-7.84 2.3-13.12 2.3-5.1 0-10.95-.42-11.04-.78-1.68.4-2.82.71-2.96 1.13-.72 2.19 4.51 2.02 9.62 1.86 1.33-.04 2.65-.08 3.85-.08 1.21 0 2.53.04 3.87.09Zm31.49.08c-4.74 0-7.86-.33-8.5-1.5-.25-.48.53-.7 1.69-1.04.52-.16 1.12-.33 1.74-.56 1.12 1.98 7.11-.94 8.43-2.25 1.3-1.31 7.87-11.72 8.5-13.75 1.13 1.05 1.87 1.75 1.94 2.55.1 1.18-2.09 4.06-4.36 7.06l-.03.03-.5.66c-.9 1.2-1.62 2.4-2.3 3.5-1.76 2.96-3.17 5.3-6.61 5.3Z"/><path fill="#00838C" d="M335.34 79.28c3.43-4.69 6.73-9.88 8.04-12.7l-.69-.32c-1.27 2.75-4.54 7.9-7.96 12.58l.6.44Zm37.59-3.58a31.03 31.03 0 0 1 4.1-5.38l-.55-.52c-1.6 1.68-3 3.53-4.2 5.5l.65.4Z"/><path fill="#316BF4" d="m238.2 104.88 1.3-.76a5.15 5.15 0 0 0 2.05-3.8V84.78h-87.27v15.54s0 2.55 1.77 3.8l1.31.76h-3.08v15.54s0 2.55 1.77 3.8l1.31.76h-3.08v15.53s0 2.56 1.77 3.81l36.78 21.24c2.73 1.57 7.16 1.57 9.9 0l36.78-21.24c2.04-1.57 2.04-3.8 2.04-3.8v-15.54h-3.36l1.32-.76c2.04-1.56 2.04-3.8 2.04-3.8v-15.54h-3.36Z"/><path fill="#80ABFA" d="m202.73 61.3 36.78 21.23c2.73 1.58 2.73 4.14 0 5.72l-36.78 21.23a10.93 10.93 0 0 1-9.9 0l-36.78-21.23c-2.73-1.58-2.73-4.14 0-5.72l36.78-21.23c2.73-1.58 7.16-1.58 9.9 0Z"/><path fill="#80ABFA" d="M155.18 103.34c-1.82 1.57-1.53 3.72.87 5.1l36.78 21.24c2.73 1.58 7.16 1.58 9.9 0l36.78-21.24c2.4-1.38 2.69-3.51.89-5.08-.24.3-.54.59-.9.86l-36.77 21.24c-2.73 1.58-7.16 1.58-9.9 0l-36.78-21.24a3.56 3.56 0 0 1-.87-.88Z"/><path fill="#80ABFA" d="M155.18 123.34c-1.82 1.57-1.53 3.72.87 5.1l36.78 21.24c2.73 1.58 7.16 1.58 9.9 0l36.78-21.24c2.4-1.38 2.69-3.51.89-5.08-.24.3-.54.59-.9.86l-36.77 21.24c-2.73 1.57-7.16 1.57-9.9 0l-36.78-21.24a3.56 3.56 0 0 1-.87-.88Z"/><path fill="#5D8DF5" d="m181.2 136.88 1.3-.76a5.18 5.18 0 0 0 2.05-3.8v-15.54H97.28v15.54s0 2.55 1.77 3.8l1.31.76h-3.08v15.54s0 2.55 1.77 3.8l1.31.76h-3.08v15.53s0 2.56 1.77 3.81l36.78 21.24c2.73 1.57 7.16 1.57 9.9 0l36.78-21.24c2.04-1.57 2.04-3.8 2.04-3.8v-15.54h-3.36l1.32-.76c2.04-1.56 2.04-3.8 2.04-3.8v-15.54h-3.36Z"/><path fill="#80ABFA" d="m295.2 136.88 1.3-.76a5.15 5.15 0 0 0 2.05-3.8v-15.54h-87.27v15.54s0 2.55 1.77 3.8l1.31.76h-3.08v15.54s0 2.55 1.77 3.8l1.31.76h-3.08v15.53s0 2.56 1.77 3.81l36.78 21.24c2.73 1.57 7.16 1.57 9.9 0l36.78-21.24c2.04-1.57 2.04-3.8 2.04-3.8v-15.54h-3.36l1.32-.76c2.04-1.56 2.04-3.8 2.04-3.8v-15.54h-3.36Z"/><path fill="#9CBEF6" d="m145.73 93.3 36.78 21.23c2.73 1.58 2.73 4.14 0 5.72l-36.78 21.23a10.93 10.93 0 0 1-9.9 0l-36.78-21.23c-2.73-1.58-2.73-4.14 0-5.72l36.78-21.23c2.73-1.58 7.16-1.58 9.9 0Zm-47.55 42.04c-1.82 1.57-1.53 3.72.87 5.1l36.78 21.24c2.73 1.58 7.16 1.58 9.9 0l36.78-21.24c2.4-1.38 2.69-3.51.89-5.08-.24.3-.54.59-.9.86l-36.77 21.24c-2.73 1.57-7.16 1.57-9.9 0l-36.78-21.24a3.58 3.58 0 0 1-.87-.88Zm0 20c-1.82 1.57-1.53 3.72.87 5.1l36.78 21.24c2.73 1.58 7.16 1.58 9.9 0l36.78-21.24c2.4-1.38 2.69-3.51.89-5.08-.24.3-.54.59-.9.86l-36.77 21.24c-2.73 1.57-7.16 1.57-9.9 0l-36.78-21.24a3.58 3.58 0 0 1-.87-.88Z"/><path fill="#B5D2FB" d="m259.73 93.3 36.78 21.23c2.73 1.58 2.73 4.14 0 5.72l-36.78 21.23c-2.74 1.58-7.17 1.58-9.9 0l-36.78-21.23c-2.73-1.58-2.73-4.14 0-5.72l36.78-21.23c2.73-1.58 7.16-1.58 9.9 0Z"/><path fill="#B5D2FB" d="M212.18 135.34c-1.82 1.57-1.53 3.72.87 5.1l36.78 21.24c2.73 1.58 7.16 1.58 9.9 0l36.78-21.24c2.4-1.38 2.69-3.51.89-5.08-.24.3-.54.59-.9.86l-36.77 21.24c-2.74 1.57-7.17 1.57-9.9 0l-36.78-21.24a3.56 3.56 0 0 1-.87-.88Z"/><path fill="#B5D2FB" d="M212.18 155.34c-1.82 1.57-1.53 3.72.87 5.1l36.78 21.24c2.73 1.58 7.16 1.58 9.9 0l36.78-21.24c2.4-1.38 2.69-3.51.89-5.08-.24.3-.54.59-.9.86l-36.77 21.24c-2.74 1.57-7.17 1.57-9.9 0l-36.78-21.24a3.56 3.56 0 0 1-.87-.88Z"/><defs><linearGradient id="a" x1="375.65" x2="375.65" y1="240.43" y2="0" gradientUnits="userSpaceOnUse"><stop offset=".26" stop-color="#316BF4"/><stop offset=".58" stop-color="#80ABFA" stop-opacity=".5"/><stop offset="1" stop-color="#9CBEF6" stop-opacity="0"/></linearGradient><linearGradient id="b" x1="360.56" x2="332.89" y1="99.79" y2="99.79" gradientUnits="userSpaceOnUse"><stop stop-color="#005D70"/><stop offset="1" stop-color="#003F5E"/></linearGradient></defs></svg>